<svg width="199" height="25" viewBox="0 0 199 25" fill="none" xmlns="http://www.w3.org/2000/svg">
<g id="Vector">
<path d="M4.19676 24.5V0.500003L0.0966797 0.5V24.5L4.19676 24.5Z" fill="#F3BD00"/>
<path d="M8.92125 10.0542V0.500003L24.0054 8.82493C23.6642 9.18068 23.3079 9.59863 23.0041 10.0542H8.92125Z" fill="#F3BD00"/>
<path d="M24.0562 16.1471C23.783 15.8227 23.4636 15.4101 23.1684 14.9459H8.92125V24.5L24.0562 16.1471Z" fill="#F3BD00"/>
<path d="M25.7483 9.74884L30.8177 12.5298L25.7483 15.3108C25.7483 15.3108 24.0584 13.8873 24.0584 12.5298C24.0584 11.1723 25.7483 9.74884 25.7483 9.74884Z" fill="#F3BD00"/>
<path d="M42.7807 18.6531C41.6726 18.6531 40.8081 18.3406 40.1872 17.7156C39.5742 17.0906 39.2677 16.2283 39.2677 15.1286V8.63723H37.3343V6.57234H39.303V3.46313L41.6961 1.70679V6.57234H44.7612V8.63723H41.6961V14.7132C41.6961 15.3461 41.8258 15.8011 42.0852 16.078C42.3445 16.3469 42.7178 16.4814 43.2051 16.4814C43.6766 16.4814 44.1914 16.3549 44.7494 16.1017L44.7612 18.3209C44.5254 18.4079 44.2268 18.483 43.8653 18.5463C43.5037 18.6175 43.1422 18.6531 42.7807 18.6531Z" fill="#1D1D1D"/>
<path d="M51.7641 18.6531C50.5145 18.6531 49.4536 18.3802 48.5812 17.8343C47.7088 17.2805 47.0526 16.5408 46.6125 15.6151C46.1724 14.6895 45.9523 13.6689 45.9523 12.5534C45.9523 11.4537 46.1606 10.4331 46.5771 9.49167C47.0015 8.54229 47.6342 7.78279 48.4751 7.21317C49.3239 6.63563 50.3534 6.34686 51.5637 6.34686C52.8291 6.34686 53.8586 6.63958 54.6524 7.22503C55.454 7.80257 56.0277 8.53438 56.3735 9.42046C56.7272 10.3065 56.904 11.2203 56.904 12.1618C56.904 12.3833 56.8922 12.6009 56.8686 12.8145C56.8529 13.0281 56.8333 13.1784 56.8097 13.2654H48.5223C48.6323 14.2623 48.9545 15.0376 49.4889 15.5914C50.0312 16.1452 50.7935 16.4221 51.7759 16.4221C52.3811 16.4221 52.9273 16.3193 53.4146 16.1136C53.9097 15.9079 54.3773 15.5637 54.8174 15.0811L56.4914 16.5645C55.8391 17.2765 55.1278 17.8027 54.3576 18.1429C53.5953 18.483 52.7308 18.6531 51.7641 18.6531ZM54.4991 11.4854C54.5148 11.2243 54.4913 10.9751 54.4284 10.7377C54.3026 10.0415 53.9883 9.4798 53.4853 9.05258C52.9823 8.62536 52.3339 8.41175 51.5402 8.41175C50.6599 8.41175 49.9683 8.68865 49.4654 9.24245C48.9702 9.79626 48.6559 10.5439 48.5223 11.4854H54.4991Z" fill="#1D1D1D"/>
<path d="M63.6712 18.6531C62.4923 18.6531 61.4824 18.3723 60.6415 17.8106C59.8006 17.2489 59.1679 16.5012 58.7435 15.5677C58.3191 14.6341 58.1069 13.6175 58.1069 12.5178C58.1069 11.4418 58.3152 10.4331 58.7317 9.49167C59.1483 8.5502 59.7731 7.7907 60.6061 7.21317C61.447 6.63563 62.4609 6.34686 63.6476 6.34686C64.8029 6.34686 65.8128 6.63563 66.6773 7.21317C67.5418 7.7907 68.1902 8.64118 68.6224 9.76461L66.3118 10.6665C66.1075 10.0336 65.7696 9.52727 65.298 9.14752C64.8265 8.76777 64.2763 8.57789 63.6476 8.57789C62.956 8.57789 62.3783 8.76381 61.9147 9.13565C61.4588 9.49958 61.1209 9.98218 60.9008 10.5834C60.6886 11.1768 60.5825 11.8216 60.5825 12.5178C60.5825 13.2219 60.6886 13.8707 60.9008 14.464C61.1209 15.0574 61.4588 15.5321 61.9147 15.8881C62.3783 16.2441 62.956 16.4221 63.6476 16.4221C64.2842 16.4221 64.8343 16.2362 65.298 15.8643C65.7696 15.4925 66.0996 14.9941 66.2883 14.3691L68.5045 15.2117C68.1194 16.2955 67.5025 17.1421 66.6537 17.7512C65.8049 18.3525 64.8107 18.6531 63.6712 18.6531Z" fill="#1D1D1D"/>
<path d="M70.5444 1.65932H73.0201V8.16254C73.4366 7.56127 73.9514 7.11032 74.5644 6.80968C75.1774 6.50113 75.8258 6.34686 76.5095 6.34686C77.4526 6.34686 78.2424 6.56838 78.879 7.01142C79.5235 7.45446 79.999 8.03991 80.3055 8.76777C80.612 9.49562 80.7692 10.2986 80.777 11.1768V18.4277H78.3014V11.5447C78.3014 10.6191 78.1206 9.89515 77.7591 9.37299C77.3976 8.84293 76.7846 8.57789 75.9201 8.57789C75.2992 8.57789 74.7687 8.73217 74.3286 9.04071C73.8964 9.34926 73.5702 9.77648 73.3501 10.3224C73.1301 10.8603 73.0201 11.4774 73.0201 12.1737V18.4277H70.5444V1.65932Z" fill="#1D1D1D"/>
<path d="M83.6893 6.57234H86.2003V8.23374C86.5854 7.62456 87.1001 7.15778 87.7446 6.83342C88.3969 6.50905 89.0964 6.34686 89.843 6.34686C90.8804 6.34686 91.7803 6.62376 92.5426 7.17756C93.3049 7.73137 93.8826 8.479 94.2755 9.42046C94.6763 10.354 94.8767 11.3825 94.8767 12.5059C94.8767 13.6294 94.6763 14.6618 94.2755 15.6033C93.8826 16.5368 93.301 17.2805 92.5308 17.8343C91.7685 18.3802 90.8607 18.6531 89.8076 18.6531C89.061 18.6531 88.3694 18.4949 87.7328 18.1785C87.0962 17.8541 86.5854 17.3834 86.2003 16.7663V23.3407H83.6893V6.57234ZM89.2417 16.4221C89.9333 16.4221 90.5149 16.252 90.9865 15.9118C91.4659 15.5716 91.8235 15.1048 92.0592 14.5115C92.295 13.9181 92.4129 13.2496 92.4129 12.5059C92.4129 11.7543 92.295 11.0858 92.0592 10.5004C91.8235 9.91493 91.4659 9.45606 90.9865 9.12378C90.5149 8.78359 89.9333 8.61349 89.2417 8.61349C88.5501 8.61349 87.9568 8.78359 87.4617 9.12378C86.9744 9.45606 86.605 9.91493 86.3535 10.5004C86.102 11.0858 85.9763 11.7543 85.9763 12.5059C85.9763 13.2496 86.102 13.9181 86.3535 14.5115C86.605 15.1048 86.9744 15.5716 87.4617 15.9118C87.9568 16.252 88.5501 16.4221 89.2417 16.4221Z" fill="#1D1D1D"/>
<path d="M101.361 6.34686C102.391 6.34686 103.279 6.5486 104.025 6.95209C104.772 7.35557 105.342 7.9252 105.735 8.66096C106.128 9.38882 106.324 10.2393 106.324 11.2124V18.4277H104.308L104.143 16.5764C103.766 17.2409 103.22 17.7552 102.504 18.1191C101.797 18.4751 101.054 18.6531 100.276 18.6531C99.4669 18.6531 98.7439 18.5028 98.1073 18.2022C97.4707 17.9016 96.9717 17.4664 96.6101 16.8968C96.2486 16.3193 96.0679 15.6389 96.0679 14.8556C96.0679 13.6531 96.4923 12.7828 97.341 12.2449C98.1898 11.7069 99.353 11.4379 100.83 11.4379H104.108C104.092 10.7338 103.998 10.1721 103.825 9.75274C103.652 9.32553 103.369 9.00907 102.976 8.80337C102.591 8.59767 102.057 8.49482 101.373 8.49482C100.705 8.49482 100.119 8.65305 99.6163 8.96951C99.1211 9.28597 98.7125 9.71319 98.3902 10.2512L96.5276 8.89831C97.1249 8.0676 97.8087 7.43469 98.5789 6.99956C99.3569 6.56443 100.284 6.34686 101.361 6.34686ZM100.76 16.5645C101.373 16.5645 101.915 16.43 102.387 16.161C102.866 15.892 103.251 15.5321 103.542 15.0811C103.833 14.6302 104.021 14.1317 104.108 13.5858V13.218H100.972C100.186 13.218 99.5888 13.3762 99.1801 13.6927C98.7714 14.0012 98.5671 14.4126 98.5671 14.9268C98.5671 15.4253 98.7557 15.8248 99.1329 16.1254C99.5102 16.4182 100.052 16.5645 100.76 16.5645Z" fill="#1D1D1D"/>
<path d="M113.351 6.34686C114.38 6.34686 115.268 6.5486 116.015 6.95209C116.761 7.35557 117.331 7.9252 117.724 8.66096C118.117 9.38882 118.314 10.2393 118.314 11.2124V18.4277H116.298L116.133 16.5764C115.755 17.2409 115.209 17.7552 114.494 18.1191C113.787 18.4751 113.044 18.6531 112.266 18.6531C111.456 18.6531 110.733 18.5028 110.097 18.2022C109.46 17.9016 108.961 17.4664 108.6 16.8968C108.238 16.3193 108.057 15.6389 108.057 14.8556C108.057 13.6531 108.482 12.7828 109.331 12.2449C110.179 11.7069 111.343 11.4379 112.82 11.4379H116.097C116.082 10.7338 115.987 10.1721 115.814 9.75274C115.641 9.32553 115.359 9.00907 114.966 8.80337C114.58 8.59767 114.046 8.49482 113.362 8.49482C112.694 8.49482 112.109 8.65305 111.606 8.96951C111.111 9.28597 110.702 9.71319 110.38 10.2512L108.517 8.89831C109.114 8.0676 109.798 7.43469 110.568 6.99956C111.346 6.56443 112.274 6.34686 113.351 6.34686ZM112.749 16.5645C113.362 16.5645 113.905 16.43 114.376 16.161C114.856 15.892 115.241 15.5321 115.531 15.0811C115.822 14.6302 116.011 14.1317 116.097 13.5858V13.218H112.962C112.176 13.218 111.578 13.3762 111.17 13.6927C110.761 14.0012 110.557 14.4126 110.557 14.9268C110.557 15.4253 110.745 15.8248 111.122 16.1254C111.5 16.4182 112.042 16.5645 112.749 16.5645Z" fill="#1D1D1D"/>
<path d="M125.081 18.6531C123.973 18.6531 123.108 18.3406 122.487 17.7156C121.874 17.0906 121.568 16.2283 121.568 15.1286V8.63723H119.634V6.57234H121.603V3.46313L123.996 1.70679V6.57234H127.061V8.63723H123.996V14.7132C123.996 15.3461 124.126 15.8011 124.385 16.078C124.645 16.3469 125.018 16.4814 125.505 16.4814C125.977 16.4814 126.491 16.3549 127.049 16.1017L127.061 18.3209C126.825 18.4079 126.527 18.483 126.165 18.5463C125.804 18.6175 125.442 18.6531 125.081 18.6531Z" fill="#1D1D1D"/>
<path d="M128.913 1.65932H131.388V8.16254C131.805 7.56127 132.319 7.11032 132.932 6.80968C133.545 6.50113 134.194 6.34686 134.878 6.34686C135.821 6.34686 136.611 6.56838 137.247 7.01142C137.892 7.45446 138.367 8.03991 138.674 8.76777C138.98 9.49562 139.137 10.2986 139.145 11.1768V18.4277H136.669V11.5447C136.669 10.6191 136.489 9.89515 136.127 9.37299C135.766 8.84293 135.153 8.57789 134.288 8.57789C133.667 8.57789 133.137 8.73217 132.697 9.04071C132.264 9.34926 131.938 9.77648 131.718 10.3224C131.498 10.8603 131.388 11.4774 131.388 12.1737V18.4277H128.913V1.65932Z" fill="#1D1D1D"/>
<path d="M145.559 18.6531C144.773 18.6531 144.042 18.5107 143.366 18.2259C142.698 17.9332 142.128 17.5416 141.657 17.0511C141.193 16.5526 140.863 15.9988 140.666 15.3897L142.623 14.5234C142.835 15.1088 143.169 15.6033 143.625 16.0068C144.081 16.4023 144.686 16.6001 145.441 16.6001C145.912 16.6001 146.309 16.521 146.631 16.3628C146.961 16.2045 147.209 15.9988 147.374 15.7457C147.539 15.4925 147.622 15.2235 147.622 14.9387C147.622 14.6143 147.516 14.3533 147.303 14.1555C147.091 13.9498 146.824 13.7876 146.502 13.6689C146.179 13.5502 145.732 13.4158 145.158 13.2654C144.364 13.0597 143.716 12.854 143.213 12.6483C142.718 12.4347 142.289 12.1104 141.928 11.6752C141.574 11.2322 141.397 10.6388 141.397 9.89515C141.397 9.13565 141.59 8.49087 141.975 7.9608C142.36 7.42282 142.875 7.01933 143.519 6.75034C144.164 6.48135 144.875 6.34686 145.653 6.34686C146.627 6.34686 147.488 6.56838 148.235 7.01142C148.981 7.45446 149.575 8.07947 150.015 8.88644L148.129 9.91889C147.539 8.83502 146.686 8.29308 145.57 8.29308C145.012 8.29308 144.564 8.41571 144.226 8.66096C143.896 8.89831 143.731 9.2029 143.731 9.57474C143.731 9.85164 143.83 10.085 144.026 10.2749C144.23 10.4569 144.486 10.6072 144.792 10.7259C145.099 10.8366 145.519 10.9672 146.054 11.1175C146.879 11.3469 147.555 11.5803 148.081 11.8176C148.608 12.0471 149.06 12.4031 149.437 12.8857C149.822 13.3683 150.015 14.0131 150.015 14.82C150.015 15.6587 149.806 16.3667 149.39 16.9443C148.973 17.5139 148.427 17.9411 147.751 18.2259C147.075 18.5107 146.345 18.6531 145.559 18.6531Z" fill="#1D1D1D"/>
<path d="M152.373 1.65932H154.849V8.16254C155.265 7.56127 155.78 7.11032 156.393 6.80968C157.006 6.50113 157.654 6.34686 158.338 6.34686C159.281 6.34686 160.071 6.56838 160.708 7.01142C161.352 7.45446 161.827 8.03991 162.134 8.76777C162.44 9.49562 162.598 10.2986 162.605 11.1768V18.4277H160.13V11.5447C160.13 10.6191 159.949 9.89515 159.588 9.37299C159.226 8.84293 158.613 8.57789 157.749 8.57789C157.128 8.57789 156.597 8.73217 156.157 9.04071C155.725 9.34926 155.399 9.77648 155.179 10.3224C154.959 10.8603 154.849 11.4774 154.849 12.1737V18.4277H152.373V1.65932Z" fill="#1D1D1D"/>
<path d="M169.715 6.34686C170.744 6.34686 171.632 6.5486 172.379 6.95209C173.125 7.35557 173.695 7.9252 174.088 8.66096C174.481 9.38882 174.678 10.2393 174.678 11.2124V18.4277H172.662L172.497 16.5764C172.119 17.2409 171.573 17.7552 170.858 18.1191C170.151 18.4751 169.408 18.6531 168.63 18.6531C167.82 18.6531 167.097 18.5028 166.461 18.2022C165.824 17.9016 165.325 17.4664 164.964 16.8968C164.602 16.3193 164.421 15.6389 164.421 14.8556C164.421 13.6531 164.846 12.7828 165.695 12.2449C166.543 11.7069 167.707 11.4379 169.184 11.4379H172.461C172.446 10.7338 172.351 10.1721 172.178 9.75274C172.005 9.32553 171.723 9.00907 171.33 8.80337C170.945 8.59767 170.41 8.49482 169.726 8.49482C169.058 8.49482 168.473 8.65305 167.97 8.96951C167.475 9.28597 167.066 9.71319 166.744 10.2512L164.881 8.89831C165.478 8.0676 166.162 7.43469 166.932 6.99956C167.71 6.56443 168.638 6.34686 169.715 6.34686ZM169.113 16.5645C169.726 16.5645 170.269 16.43 170.74 16.161C171.22 15.892 171.605 15.5321 171.895 15.0811C172.186 14.6302 172.375 14.1317 172.461 13.5858V13.218H169.326C168.54 13.218 167.942 13.3762 167.534 13.6927C167.125 14.0012 166.921 14.4126 166.921 14.9268C166.921 15.4253 167.109 15.8248 167.486 16.1254C167.864 16.4182 168.406 16.5645 169.113 16.5645Z" fill="#1D1D1D"/>
<path d="M179.853 18.6531C179.083 18.6531 178.494 18.4514 178.085 18.0479C177.684 17.6365 177.484 16.9601 177.484 16.0186V1.65932H179.912V15.3541C179.912 15.7101 179.995 15.983 180.16 16.1729C180.325 16.3549 180.596 16.4458 180.973 16.4458C181.17 16.4458 181.453 16.4182 181.822 16.3628L181.834 18.4277C181.103 18.578 180.443 18.6531 179.853 18.6531Z" fill="#1D1D1D"/>
<path d="M187.894 6.34686C188.923 6.34686 189.811 6.5486 190.558 6.95209C191.304 7.35557 191.874 7.9252 192.267 8.66096C192.66 9.38882 192.857 10.2393 192.857 11.2124V18.4277H190.841L190.676 16.5764C190.299 17.2409 189.752 17.7552 189.037 18.1191C188.33 18.4751 187.587 18.6531 186.809 18.6531C186 18.6531 185.277 18.5028 184.64 18.2022C184.003 17.9016 183.504 17.4664 183.143 16.8968C182.781 16.3193 182.6 15.6389 182.6 14.8556C182.6 13.6531 183.025 12.7828 183.874 12.2449C184.722 11.7069 185.886 11.4379 187.363 11.4379H190.64C190.625 10.7338 190.53 10.1721 190.357 9.75274C190.185 9.32553 189.902 9.00907 189.509 8.80337C189.124 8.59767 188.589 8.49482 187.905 8.49482C187.237 8.49482 186.652 8.65305 186.149 8.96951C185.654 9.28597 185.245 9.71319 184.923 10.2512L183.06 8.89831C183.658 8.0676 184.341 7.43469 185.112 6.99956C185.89 6.56443 186.817 6.34686 187.894 6.34686ZM187.292 16.5645C187.905 16.5645 188.448 16.43 188.919 16.161C189.399 15.892 189.784 15.5321 190.075 15.0811C190.365 14.6302 190.554 14.1317 190.64 13.5858V13.218H187.505C186.719 13.218 186.121 13.3762 185.713 13.6927C185.304 14.0012 185.1 14.4126 185.1 14.9268C185.1 15.4253 185.288 15.8248 185.666 16.1254C186.043 16.4182 186.585 16.5645 187.292 16.5645Z" fill="#1D1D1D"/>
<path d="M194.869 17.7208C194.869 17.4394 194.917 17.1774 195.014 16.9348C195.12 16.6825 195.26 16.4642 195.435 16.2798C195.618 16.0954 195.831 15.9499 196.073 15.8432C196.325 15.7364 196.591 15.683 196.871 15.683C197.152 15.683 197.413 15.7364 197.655 15.8432C197.906 15.9499 198.124 16.0954 198.308 16.2798C198.492 16.4642 198.637 16.6825 198.743 16.9348C198.849 17.1774 198.903 17.4394 198.903 17.7208C198.903 18.0119 198.849 18.2788 198.743 18.5213C198.637 18.7639 198.492 18.9774 198.308 19.1618C198.124 19.3461 197.906 19.4868 197.655 19.5839C197.413 19.6906 197.152 19.744 196.871 19.744C196.591 19.744 196.325 19.6906 196.073 19.5839C195.831 19.4868 195.618 19.3461 195.435 19.1618C195.26 18.9774 195.12 18.7639 195.014 18.5213C194.917 18.2788 194.869 18.0119 194.869 17.7208Z" fill="#F3BD00"/>
</g>
</svg>
